<svg xmlns="http://www.w3.org/2000/svg" viewBox="0 0 192 192">
  <defs>
    <linearGradient id="bg" x1="0%" y1="0%" x2="100%" y2="100%">
      <stop offset="0%" stop-color="#14532d" />
      <stop offset="100%" stop-color="#15803d" />
    </linearGradient>
    <filter id="shadow" x="-10%" y="-10%" width="120%" height="120%">
      <feDropShadow dx="0" dy="4" stdDeviation="6" flood-color="#000000" flood-opacity="0.3"/>
    </filter>
  </defs>
  <rect width="192" height="192" rx="42" fill="url(#bg)"/>
  
  <g filter="url(#shadow)">
    <!-- Leaves / Plant Graphic scaled down -->
    <path d="M96,45 C96,45 67,52 60,93.75 C52.5,135 96,147 96,147 C96,147 139.5,135 132,93.75 C124.5,52 96,45 96,45 Z" fill="#4ade80" />
    <path d="M96,45 C96,45 67,52 60,93.75 C52.5,135 96,147 96,147 L96,45 Z" fill="#22c55e" />
    
    <path d="M96,67.5 C96,67.5 75,75 71.25,105 C67.5,135 96,138.75 96,138.75 L96,67.5 Z" fill="#16a34a" />
    <path d="M96,67.5 C96,67.5 117,75 120.75,105 C124.5,135 96,138.75 96,138.75 L96,67.5 Z" fill="#15803d" />
    
    <path d="M96,147 C96,147 91.875,161.25 96,172.5" fill="none" stroke="#bbf7d0" stroke-width="6" stroke-linecap="round" />
  </g>
</svg>
